<svg xmlns="http://www.w3.org/2000/svg" viewBox="0 0 528.6 190.4"><linearGradient id="a" gradientUnits="userSpaceOnUse" x1="108.25" y1="126.055" x2="121.823" y2="126.055"><stop offset="0" stop-color="#29cdff"/><stop offset=".379" stop-color="#148eff"/><stop offset="1" stop-color="#0a60ff"/></linearGradient><path d="M108.2 133.4c4.7-.3 9.2-1 13.6-1.8l-6.3-12.9-7.3 14.7z" fill="url(#a)"/><linearGradient id="b" gradientUnits="userSpaceOnUse" x1="18.449" y1="71.823" x2="182.199" y2="71.823"><stop offset="0" stop-color="#29cdff"/><stop offset=".379" stop-color="#148eff"/><stop offset="1" stop-color="#0a60ff"/></linearGradient><path d="M100.3 12c-45.2 0-81.9 27.3-81.9 60.9 0 28.2 25.9 52 61 58.9L65.3 103C62 96.3 62.8 86.5 67 81.2s10.4-4.1 13.7 2.6l13.6 27.6 13-26.4c.6-1.4 1.3-2.8 2.2-3.9 1.7-2.1 3.7-3.2 5.7-3.3h.8c2 .1 4 1.2 5.7 3.3.9 1.1 1.6 2.4 2.2 3.9l13 26.4 13.6-27.6c3.3-6.7 9.5-7.9 13.7-2.6 4.2 5.3 5 15.1 1.6 21.9l-5.6 11.4c13.7-10.9 22.2-25.5 22.2-41.6-.2-33.7-36.9-60.9-82.1-60.9z" fill="url(#b)"/><linearGradient id="c" gradientUnits="userSpaceOnUse" x1="58.814" y1="47.019" x2="190.321" y2="47.019"><stop offset="0" stop-color="#4285eb"/><stop offset="1" stop-color="#2ec7ff"/></linearGradient><path d="M190.1 36.4c-3.2-19.6-35.1-30.7-71.3-24.8-36.2 5.9-62.9 26.5-59.7 46.1C61.6 73 81.7 83.2 107.7 84c.5-1 1.1-2 1.7-2.8 1.7-2.1 3.7-3.2 5.7-3.3h.8c2 .1 4 1.2 5.7 3.3.5.7 1 1.4 1.4 2.3 2.4-.2 4.9-.6 7.3-1 36.2-5.9 62.9-26.5 59.8-46.1z" fill="url(#c)"/><linearGradient id="d" gradientUnits="userSpaceOnUse" x1="0" y1="105.14" x2="142.255" y2="105.14"><stop offset="0" stop-color="#29cdff"/><stop offset=".379" stop-color="#148eff"/><stop offset="1" stop-color="#0a60ff"/></linearGradient><path d="M138.5 151.9c-.1 0-.2.1-.3.1-.2 0-.4.1-.6.1h-1.8c-.2 0-.4-.1-.6-.1-.1 0-.2-.1-.3-.1-.2-.1-.5-.1-.7-.2-.1 0-.1 0-.2-.1-1.9-.9-3.7-2.6-5.1-5.4l-13.5-27.5-13.4 27.5c-1.3 2.7-3.1 4.5-5.1 5.4-.1 0-.1 0-.2.1-.2.1-.5.2-.7.2-.1 0-.2.1-.3.1-.2 0-.4.1-.6.1h-1.8c-.2 0-.4-.1-.6-.1-.1 0-.2-.1-.3-.1-.2-.1-.5-.1-.7-.2-.1 0-.1 0-.2-.1-1.9-.9-3.7-2.6-5.1-5.4L65.2 103C62 96.3 62.8 86.5 67 81.2s10.4-4.1 13.7 2.6l13.6 27.6 13-26.4c.6-1.4 1.3-2.8 2.2-3.9 1.7-2.1 3.7-3.2 5.7-3.3h.8c2 .1 4 1.2 5.7 3.3.9 1.1 1.6 2.4 2.2 3.9l13 26.4 5.5-11.2c-6.9-15.7-20-30.9-37.7-42.4-37.2-24-81-22.3-97.9 3.8s-.4 66.8 36.9 90.8c35.7 23 77.5 22.4 95.7-.8-.5.2-.7.2-.9.3z" fill="url(#d)"/><linearGradient id="e" gradientUnits="userSpaceOnUse" x1="33.719" y1="147.248" x2="88.67" y2="147.248"><stop offset="0" stop-color="#fa8e7d"/><stop offset=".513" stop-color="#f74a5c"/><stop offset="1" stop-color="#f51d2c"/></linearGradient><path d="M86.6 146.2l-16.7-33.9L38 151.1c-6.6 8.1-5.5 20.1 2.6 26.7 8.1 6.6 20.1 5.5 26.7-2.6l21.3-25.9c-.7-.8-1.4-1.8-2-3.1z" fill="url(#e)"/><linearGradient id="f" gradientUnits="userSpaceOnUse" x1="7.928" y1="37.948" x2="19.919" y2="37.948"><stop offset="0" stop-color="#fa8e7d"/><stop offset=".513" stop-color="#f74a5c"/><stop offset="1" stop-color="#f51d2c"/></linearGradient><path d="M10 33.8s-4.5 2.8-.4 7.8c0 0 6.6 2.1 10.3-1.8 0 0-1.9-6.3-9.9-6z" fill="url(#f)"/><linearGradient id="g" gradientUnits="userSpaceOnUse" x1="10.36" y1="26.889" x2="26.723" y2="26.889"><stop offset="0" stop-color="#29cdff"/><stop offset=".379" stop-color="#148eff"/><stop offset="1" stop-color="#0a60ff"/></linearGradient><path d="M12.5 20.3s-9.9 9.5 12.4 13.5c0 0 3.5 1.6.8-2.7 0-.1-6.7-14.4-13.2-10.8z" fill="url(#g)"/><linearGradient id="h" gradientUnits="userSpaceOnUse" x1="156.526" y1="148.643" x2="178.933" y2="148.643"><stop offset="0" stop-color="#fa8e7d"/><stop offset=".513" stop-color="#f74a5c"/><stop offset="1" stop-color="#f51d2c"/></linearGradient><path d="M156.5 138.2s6.8 25.6 21.6 20.1c.1 0 7.2-12.4-21.6-20.1z" fill="url(#h)"/><linearGradient id="i" gradientUnits="userSpaceOnUse" x1="164.151" y1="135.149" x2="176.506" y2="135.149"><stop offset="0" stop-color="#29cdff"/><stop offset=".379" stop-color="#148eff"/><stop offset="1" stop-color="#0a60ff"/></linearGradient><path d="M164.2 132.7s2.6 7.8 11.5 5.5c0 0 4.1-5.4-5.8-6.5 0 0-4 .6-5.7 1z" fill="url(#i)"/><linearGradient id="j" gradientUnits="userSpaceOnUse" x1="73.627" y1="172.635" x2="80.127" y2="172.635"><stop offset="0" stop-color="#4285eb"/><stop offset="1" stop-color="#2ec7ff"/></linearGradient><circle cx="76.9" cy="172.6" r="3.3" fill="url(#j)"/><text transform="translate(220.32 117.818)" font-size="102.776" font-family="MF-JingYue(Noncommercial)-Regular" fill="#1890ff">唯品秀</text><text transform="translate(223.57 166.432)" font-size="35.631" font-family="SourceHanSansSC-Regular-GBpc-EUC-H" fill="#666">www.weipxiu.com</text></svg>